<?xml version="1.0"?><svg width="1063" height="941" xmlns="http://www.w3.org/2000/svg">
 <title>coming soon</title>

 <g>
  <title>Layer 1</title>
  <path id="svg_1" fill="#CBCBCB" fill-rule="evenodd" stroke="#CBCBCB" stroke-width="1px" d="m604,754l7,0l0,0l0,0l1,1l0,0l0,0q0,1 -2,1q-1,0 -34,4l-32,3l0,0l-1,-1l-3,0l-4,0l-4,-1q-3,-1 -6,-1l-4,0l-4,-1l-3,-1l1,0l1,0l0,-1l1,0l0,0l0,-1l0,0l0,0l4,0q4,0 8,-1l3,0l31,0q32,-1 40,-1z"/>
  <path id="svg_2" fill="#B6B6B6" fill-rule="evenodd" stroke="#B6B6B6" stroke-width="1px" d="m371,768l27,0l0,0l0,0l-1,1l-1,1l-2,0l-1,0l3,1l2,1l5,0q5,2 3,2q-2,1 -2,2l0,0l-4,0q-5,0 -34,3l-28,3l-5,0q-5,0 -7,-1q-3,-1 -28,-3l-26,-2l-1,0l-1,0l-2,-1l-2,-1l0,0l0,0l2,0l2,0l2,-1l3,-1l1,0l1,0l1,-1l1,-1l2,0l2,0l0,-1l0,0l31,0q30,-1 57,-1z"/>
  <path id="svg_3" fill="#FA484E" fill-rule="evenodd" stroke="#FA484E" stroke-width="1px" d="m556,122l1,0l0,1q1,1 1,1l0,1l-2,0q-1,1 -4,4l-3,4l0,-1q-1,-2 -1,-4q0,-1 -7,0l-7,0l0,0l0,0l1,-1l1,-1l0,0l0,0l1,0l0,0l1,-1l1,-1l1,0l2,0l6,-1q6,-1 8,-1z"/>
  <path id="svg_4" fill="#852908" fill-rule="evenodd" stroke="#852908" stroke-width="1px" d="m528,170l0,-1l2,3q2,2 3,2l0,1l0,0q-1,0 -1,1q0,1 -1,2l-1,0l-1,0q0,0 -1,-1q-2,-1 -2,-3q0,-2 1,-2q1,-1 1,-2z"/>
  <path id="svg_5" fill="#DC0803" fill-rule="evenodd" stroke="#DC0803" stroke-width="1px" d="m532,136l1,0l0,2q0,3 4,3q4,-1 4,-1l0,0l1,0l2,0l0,1l0,0l1,1q1,2 4,0q3,0 6,-2q3,-2 3,-1q0,0 1,-1l0,0l3,1q4,1 6,4q2,3 4,3q1,0 2,1l0,0l0,1q0,1 -2,4l0,3l2,-1q2,0 3,1q1,1 1,1q0,0 1,6l0,5l0,1q-1,1 -5,6q-4,4 -10,7l-7,2l-1,0q-2,-1 -9,-2l-7,-1l0,0l0,0l-1,-1q-1,-1 -3,-2l-3,-2l0,-1q-1,0 -3,-2l-2,-3l0,-1q0,0 -1,-1q-1,-1 -3,-9l-2,-7l0,-1l0,0l0,-3q0,-3 1,-4l0,-1l0,0q1,0 1,0l0,-1l4,-3q4,-2 4,-2z"/>
  <path id="svg_6" fill="#FB170E" fill-rule="evenodd" stroke="#FB170E" stroke-width="1px" d="m596,105l0,0l0,1q0,1 1,2q0,2 -4,0q-4,-2 -12,0l-8,0l0,1l-1,0l0,0l0,1l0,0l0,0l-1,0l0,0l0,1l-1,0l0,1l0,1l-1,2l0,2l0,0q-1,0 -1,1l0,1l0,4q0,4 1,5l1,1l2,3q2,4 3,4l1,0l2,2q3,2 8,1q5,-1 8,-2q2,-1 2,-2q1,-1 1,-2l1,0l0,0l0,-1l0,0l0,0l1,0l0,0l0,-1l1,0l0,-1l0,-1l1,0l1,0l0,1l0,2l1,2l0,1l0,1l-1,1l0,0l0,1l0,0l0,0l-1,0l0,0l0,1l-1,0l0,0l0,1l0,0l0,0l-1,0q0,0 -1,1l0,1l-1,0l0,0l0,1l-1,0l0,0l0,1l0,0l0,0l-1,0l0,0l-1,0q0,0 0,1l0,0l-1,0q-1,1 -1,1l-1,0l-7,0l-8,0l-1,1l-1,0l0,0q-1,-1 -4,0q-2,1 -2,0q0,-1 -1,-4q-1,-3 -5,-4l-3,-1l0,-1q1,-1 1,-5q0,-3 -1,-4l-1,-1l0,-1l0,-1l0,-1q0,0 -1,-1l0,-1l0,-4q1,-4 1,-4l0,-1l0,0q0,0 1,-1l0,0l3,0q2,-1 2,-4q0,-2 0,-3l0,-1l0,0q0,0 1,0l0,-1l0,0q1,0 1,-1l0,0l4,-2q4,-2 10,-1q6,1 10,3q5,2 6,3z"/>
  <path id="svg_7" fill="#959493" fill-rule="evenodd" stroke="#959493" stroke-width="1px" d="m235,412l1,-1l0,0q0,1 0,1l1,0l8,132q7,131 8,134l0,2l-1,5q-2,5 -2,10l0,5l-1,-1l-1,-1l0,-4q0,-4 -1,-7l0,-3l-1,0l-1,0l0,-2l-1,-1l0,1l0,2l-1,-1l-1,-1l0,1l0,1l-2,14q-2,15 -2,18l0,4l-1,0l0,0l0,-1l-1,0l0,1l0,1l-1,-1l-1,-1l0,-1l0,-1l-1,0l0,0l0,-4l0,-4l0,-35q-1,-35 -1,-103q0,-68 2,-113q0,-45 1,-46z"/>
  <path id="svg_8" fill="#EA154F" fill-rule="evenodd" stroke="#EA154F" stroke-width="1px" d="m542,138l0,0l0,0q-1,0 -1,1l0,0l0,1l0,0l0,0q0,0 -4,1q-4,0 -4,-3l0,-2l1,-1q0,-1 4,-1q4,0 4,2q0,2 0,2z"/>
  <path id="svg_9" fill="#F6E56D" fill-rule="evenodd" stroke="#F6E56D" stroke-width="1px" d="m690,143l10,0l0,0l0,1l5,0l5,0l0,1l0,0l-1,0l0,1l-1,0l-1,0l-3,1q-4,1 -6,1q-2,2 -1,2q1,0 1,1q0,1 -2,1q-2,1 -2,3q0,2 -2,3q-2,2 -3,6q-2,3 -5,3q-4,-1 -12,2q-8,3 -15,3l-7,2l0,0l0,0l-1,0l0,0l0,1l1,0l1,3q1,2 1,3l0,1l0,2l0,1l-1,0l0,1l-1,0l-1,0l-1,-1l-1,-1l0,0q-1,0 0,-2l1,-3l-1,0l-1,1l-1,0l-1,0l-2,1l-3,0l-1,5q-1,6 2,6l3,0l0,4l-1,5l-1,2q-2,1 -5,3q-2,1 -3,2q0,1 2,2q2,0 1,4q-2,4 0,8q2,4 4,11q2,7 4,10q0,3 0,5q-2,3 -1,5q1,3 -9,7q-11,4 -10,4q0,0 -2,1q-2,1 -4,3q0,2 -1,7q-1,5 1,12q2,7 1,7q-1,0 1,6q2,5 4,19q2,14 4,23q2,8 3,11q1,3 2,3l0,0l0,1l1,0l0,0l0,1l0,0l0,0l1,0l0,0l-1,1l-1,0l0,2l-1,2l0,0l0,1l-2,0l-1,0l0,-2l1,-2l0,-2l0,-2l-1,-1l-1,-1l0,0l0,0l0,-1l0,0l0,1l0,1l0,1l0,1l-1,0q0,1 -1,0q0,-1 -1,-1q-1,0 -1,3l0,2l-1,0l0,-1l0,0l-1,0l0,0l0,0l0,-1l0,0l-1,0l0,-1l0,0q-1,0 -1,0q0,-1 -2,-6q-2,-5 -5,-6q-2,-2 -4,-1q-2,0 -3,-5q-2,-5 -4,-6q-2,-2 -3,-6q-1,-3 -3,-5q-2,-2 -2,-5q0,-4 -2,-5q-1,-1 -2,-4q-1,-2 -2,-2q-1,-1 -2,-2q-1,-2 -6,-3q-4,0 -6,-2q-2,-2 -4,-2q-2,0 -2,-3q-1,-3 -2,-3q-1,0 -1,-2q-1,-2 -2,-3q-2,-1 -3,-7q-2,-6 -3,-6q-1,0 -2,-3q-1,-2 -4,-4q-2,-1 -3,-4q-1,-2 -8,-5q-8,-2 -9,-4q-1,-2 -4,-2q-3,1 -3,2q0,1 -2,2q-2,0 -5,5q-3,4 -5,6q-2,3 -10,3q-8,0 -11,0q-3,0 -5,2q-2,4 -8,4q-6,0 -12,0q-5,0 -12,-1q-7,-1 -7,-3q1,-2 -1,-3q-1,-1 -3,-4q-3,-3 -4,-4q-2,-1 -10,-1q-9,-1 -11,-2q-2,-2 -6,-3q-3,-2 -3,-1q0,2 -3,2q-4,1 -4,-1q-1,-2 -2,-2q-1,-1 -2,-2q0,-1 -1,-1q-1,0 -1,-3q0,-2 -1,-2q-1,0 -1,1q0,1 -3,0q-3,0 -3,-2q0,-1 -2,-3q-2,-3 -7,-4q-5,-1 -5,-3q1,-3 -2,-2q-2,0 -7,0q-5,-2 -9,-2q-4,0 -5,-3q-1,-2 -4,-7q-3,-4 -5,-9q-2,-5 -5,-4q-3,1 -3,-1q0,-1 -2,-1q-1,1 -2,-1q0,-1 -2,0q-3,2 -4,0q-1,0 -4,-2q-4,-2 -5,-6q-1,-3 1,-4l2,0l0,0l0,0l-2,-1q-2,-1 -6,-1q-4,0 -8,-1q-3,-1 -4,0q0,1 -8,-3q-9,-4 -11,-6l-3,-3l0,-1l0,-1l0,-1l0,-1l0,0l0,-1l-2,0l-1,0l0,-1l1,-1l0,0l0,0l1,-1l1,-1l8,0q9,0 10,0q1,0 3,0l2,0l0,-1l1,0l0,0l0,-1l-2,0l-2,0l1,-1l1,-1l2,0l1,0l-4,-1l-4,-1l0,0l0,0l103,-5q103,-5 113,-6l10,-1l1,0l2,0l0,0l0,1l0,0l0,0l-1,2l-1,2l0,0l0,-1l0,0l0,0l-1,0l0,0l0,1l-1,0l0,1l0,1l-6,3q-5,2 -9,8q-5,6 -4,14q1,8 2,10q1,3 2,3q1,0 1,1q0,1 2,2q2,0 4,1l1,0l0,1l0,1l8,1q8,0 15,0q7,0 13,-6q5,-6 7,-9q2,-3 3,-3l0,-1l7,-2q6,-3 10,-7q4,-5 5,-6l0,-1l0,0l1,0l1,-7q1,-7 1,-10q0,-3 4,-3q5,-1 5,-1l0,0l1,-1q1,-1 2,-1l1,0l0,1q1,1 1,1l0,0l42,-1q41,-1 52,-2zm-56,51l0,0l1,-1q1,0 1,1q0,1 -1,1l0,1l0,0l-1,0l0,2l0,1l-1,0l0,-1l0,0l-1,0l0,0l0,0l0,-1l0,0l1,-1l1,-2l0,0z"/>
  <path id="svg_10" fill="#DFDED0" fill-rule="evenodd" stroke="#DFDED0" stroke-width="1px" d="m226,244l1,-21l1,10q2,10 2,38l0,28l-1,4q-1,4 -3,31q0,27 -1,68l0,40l0,0l-1,0l0,-88q0,-88 2,-110z"/>
  <path id="svg_11" fill="#B06D3A" fill-rule="evenodd" stroke="#B06D3A" stroke-width="1px" d="m521,153l1,-2l0,0l0,0l2,7q2,8 3,9q1,1 1,1l0,1l0,1q0,1 -1,2q-1,0 -1,2q0,2 2,3q1,1 1,1l1,0l1,0q1,-1 1,-2q0,-1 1,-1l0,0l3,2q2,1 3,2l1,1l0,0l0,0l0,0l0,1l0,1l0,1l0,1l0,1l-1,2l0,2l-1,0q-1,1 -2,1q-1,0 -1,1q-1,1 -3,2q-2,1 -8,3l-6,2l-4,1l-3,0l-1,0q-2,-1 -4,-1q-2,-1 -2,-2q0,-1 -1,-1q-1,0 -2,-3q-1,-2 -2,-10q-1,-8 4,-14q4,-6 9,-8l6,-3l0,-1l0,-1l1,0l0,-1l0,0l1,0l0,0l0,0l0,1l0,0l1,-2z"/>
  <path id="svg_12" fill="#FAEE7A" fill-rule="evenodd" stroke="#FAEE7A" stroke-width="1px" d="m813,137l4,0l13,293q13,293 13,294q-1,0 -14,2q-12,0 -16,1l-4,0l-12,0q-11,1 -38,2l-28,1l0,1l0,0l-10,0q-9,1 -78,4l-68,3l0,1l0,0l-10,0q-10,1 -152,8l-143,7l-1,1l-1,0l-5,0q-4,0 -6,-37l-3,-38l0,-2q-1,-3 -8,-134l-8,-132l0,0q-1,-1 -1,-1l0,0l0,-7q0,-7 -3,-56l-3,-49l0,-28q0,-28 -2,-38l-1,-10l0,-13q-1,-14 0,-30l0,-15l30,-1q30,-2 33,-2l3,0l0,0l0,0l4,1l4,1l-1,0l-2,0l-1,1l-1,1l2,0l2,0l0,1l0,0l-1,0l0,1l-2,0q-2,0 -3,0q-1,0 -10,0l-8,0l-1,1l-1,1l0,0l0,0l-1,1l0,1l1,0l2,0l0,1l0,0l0,1l0,1l0,1l0,1l3,3q2,2 11,6q8,4 8,3q1,-1 4,0q4,1 8,1q4,0 6,1l2,1l0,0l0,0l-2,0q-2,1 -1,4q1,4 5,6q3,2 4,2q1,2 4,0q2,-1 2,0q1,2 2,1q2,0 2,1q0,2 3,1q3,-1 5,4q2,5 5,9q3,5 4,7q1,3 5,3q4,0 9,2q5,0 7,0q3,-1 2,2q0,2 5,3q5,1 7,4q2,2 2,3q0,2 3,2q3,1 3,0q0,-1 1,-1q1,0 1,2q0,3 1,3q1,0 1,1q1,1 2,2q1,0 2,2q0,2 4,1q3,0 3,-2q0,-1 3,1q4,1 6,3q2,1 11,2q8,0 10,1q1,1 4,4q2,3 3,4q2,1 1,3q0,2 7,3q7,1 12,1q6,0 12,0q6,0 8,-4q2,-2 5,-2q3,0 11,0q8,0 10,-3q2,-2 5,-6q3,-5 5,-5q2,-1 2,-2q0,-1 3,-2q3,0 4,2q1,2 9,4q7,3 8,5q1,3 3,4q3,2 4,4q1,3 2,3q1,0 3,6q1,6 3,7q1,1 2,3q0,2 1,2q1,0 2,3q0,3 2,3q2,0 4,2q2,2 6,2q5,1 6,3q1,1 2,2q1,0 2,2q1,3 2,4q2,1 2,5q0,3 2,5q2,2 3,5q1,4 3,6q2,1 4,6q1,5 3,5q2,-1 4,1q3,1 5,6q2,5 2,6q0,0 1,0l0,0l0,1l1,0l0,0l0,1l0,0l0,0l1,0l0,0l0,1l1,0l0,-2q0,-3 1,-3q1,0 1,1q1,1 1,0l1,0l0,-1l0,-1l0,-1l0,-1l0,0l0,1l0,0l0,0l1,1l1,1l0,2l0,2l-1,2l0,2l1,0l2,0l0,-1l0,0l1,-2l0,-2l1,0l1,-1l0,0l-1,0l0,0l0,0l0,-1l0,0l-1,0l0,-1l0,0q-1,0 -2,-3q-1,-3 -3,-11q-2,-9 -4,-23q-2,-14 -4,-19q-2,-6 -1,-6q1,0 -1,-7q-2,-7 -1,-12q1,-5 1,-7q2,-2 4,-3q2,-1 2,-1q-1,0 10,-4q10,-4 9,-7q-1,-2 1,-5q0,-2 0,-5q-2,-3 -4,-10q-2,-7 -4,-11q-2,-4 0,-8q1,-4 -1,-4q-2,-1 -2,-2q1,-1 3,-2q3,-2 5,-3l1,-2l1,-5l0,-4l-3,0q-3,0 -4,2l-1,2l0,0l-1,0l0,2l0,1l-1,0l0,-1l0,0l-1,0l0,0l0,0l0,-1l0,0l1,-1l1,-2l0,0l0,0l0,-1l0,0l1,-1l1,-1l1,-4q1,-4 2,-5l0,-1l3,0l2,-1l1,0l1,0l1,-1l1,0l-1,3q-1,2 0,2l0,0l1,1l1,1l1,0l1,0l0,-1l1,0l0,-1l0,-2l0,-1q0,-1 -1,-3l-1,-3l-1,0l0,-1l0,0l1,0l0,0l0,0l7,-2q7,0 15,-3q8,-3 12,-2q3,0 5,-3q1,-4 3,-6q2,-1 2,-3q0,-2 2,-3q2,0 2,-1q0,-1 -1,-1q-1,0 1,-2q2,0 6,-1l3,-1l1,0l1,0l0,-1l1,0l0,0l0,-1l-5,0l-5,0l0,-1l0,0l0,0l0,-1l54,-2q53,-2 58,-3z"/>
  <path id="svg_13" fill="#D1D1D1" fill-rule="evenodd" stroke="#D1D1D1" stroke-width="1px" d="m680,744l18,0l0,0q0,0 -10,3q-9,3 -42,5l-34,3l0,0l-1,-1l0,0l0,0l0,0l0,0l1,-1l2,-1l2,0l1,0l1,-1q2,-1 0,-1q-1,0 1,-2l2,-1l20,-1q20,-2 39,-2z"/>
  <path id="svg_14" fill="#FA486B" fill-rule="evenodd" stroke="#FA486B" stroke-width="1px" d="m565,102l1,0l0,1q0,1 -1,1q0,0 -1,4q0,3 -3,4l-3,1l3,-5q3,-6 4,-6z"/>
  <path id="svg_15" fill="#C4C4C3" fill-rule="evenodd" stroke="#C4C4C3" stroke-width="1px" d="m229,303l1,-4l3,55q3,56 4,57l0,1l-1,0q-2,1 -2,46q-2,45 -2,113q0,68 1,103l0,35l-1,5q0,5 -1,8l-1,3l0,-1l0,-2l-1,2l-1,3l0,0l0,0l0,-1l0,0l-1,-14q-1,-13 -1,-142l-1,-128l0,-40q1,-41 1,-68q2,-27 3,-31z"/>
  <path opacity="0" id="svg_16" fill="#FEFEFE" fill-rule="evenodd" stroke="#FEFEFE" stroke-width="1px" d="m0,470l0,-470l532,0l531,0l0,470l0,471l-531,0l-532,0l0,-471zm596,-365l0,0l4,5q4,5 4,12q2,7 0,10q0,3 -1,3l0,0l0,1l-1,1l0,0l0,1l0,0l0,0l-1,0l0,0l0,1l-1,0l0,0l0,1l0,0l0,0l-1,0q0,0 -1,1l0,1l-1,0l0,0l0,1l-1,0l0,0l0,1l0,0l0,0l-1,0l0,0l0,0l-1,1l0,0l0,0l0,0l0,1l1,0l1,0l42,-1q41,-1 52,-2l10,0l0,0l0,-1l54,-2q53,-2 58,-3l4,0l13,293q13,293 13,294q-1,0 -14,2q-12,0 -16,1l-4,0l0,1q0,1 -2,2q-1,0 -15,4q-14,4 -36,5l-22,1l-3,0q-2,0 -17,2l-15,2l0,0q0,0 -10,3q-9,3 -42,5l-34,3l0,0q0,1 -2,1q-1,0 -34,4l-32,3l0,0l0,1l-4,0l-4,0l-4,1q-5,1 -26,2l-21,2l0,0q0,1 -3,1q-4,0 -41,3l-37,3l-4,0q-5,0 -34,3l-28,3l0,0l0,0l-2,1l-3,1l-4,0q-4,0 -21,2q-17,2 -41,2q-24,0 -29,-2q-4,-4 -7,-10q-3,-7 -3,-28l0,-21l0,-1l0,0l-1,-14q-1,-13 -1,-142l-1,-128l0,0l-1,0l0,-88q0,-88 2,-110l1,-21l0,-13q-1,-14 0,-30l0,-15l30,-1q30,-2 33,-2l3,0l103,-5q103,-5 113,-6l10,-1l1,0l2,0l0,-3q0,-3 1,-4l0,-1l0,0q0,0 1,-1l0,0l0,-1l0,-2l1,-1l1,-1l0,-1l0,-1l1,0l0,0l0,-1l1,0l2,-2q3,-3 4,-3l0,0l0,0l0,0l1,-1l1,-1l0,0l0,0l1,0l0,0l1,-1l1,-1l1,0l2,0l6,-1q6,-1 8,-1l1,0l0,-4q1,-4 1,-4l0,-1l0,0q0,-1 0,-1l1,0l2,-4q2,-4 3,-4l0,0l0,0q0,0 0,-1l1,0l0,0q0,-1 1,-1l0,0l4,-2q4,-2 10,-1q6,1 10,3q5,2 6,3z"/>
  <path id="svg_17" fill="#F41E2F" fill-rule="evenodd" stroke="#F41E2F" stroke-width="1px" d="m549,132l0,1l0,1l0,0l-1,0q0,0 0,2q-1,1 -2,1l-2,1l0,0q0,0 -2,0l-1,1l0,-1q0,-1 1,-1q1,0 0,-1q0,-2 -4,-2q-4,0 -4,1l-1,1l-1,0q0,0 0,-1q0,0 -4,3q-3,4 -4,4l-1,0l0,-1l1,-1l0,-1l0,-1l1,-1l1,-1l0,-1l0,-1l1,0l0,0l0,-1l1,0l2,-2q3,-3 4,-3l0,0l7,0q7,-1 7,0q0,2 1,4z"/>
  <path id="svg_18" fill="#F95929" fill-rule="evenodd" stroke="#F95929" stroke-width="1px" d="m575,147l1,-1l8,0l7,0l0,0q0,0 -5,1q-4,0 -4,3q0,3 -1,10l-1,7l-1,0l0,0l0,-5q-1,-6 -1,-6q0,0 -1,-1q-1,-1 -3,-1l-2,1l0,-3q2,-3 2,-4l0,-1l1,0z"/>
  <path id="svg_19" fill="#E56061" fill-rule="evenodd" stroke="#E56061" stroke-width="1px" d="m556,125l2,0l0,1l0,1l0,1q0,2 -4,5q-3,3 -4,2l-1,-1l0,0l0,-1l3,-4q3,-3 4,-4z"/>
  <path id="svg_20" fill="#CFCFCF" fill-rule="evenodd" stroke="#CFCFCF" stroke-width="1px" d="m232,714l1,-5l0,4l0,4l3,16q4,16 6,21q2,5 4,7q1,2 9,7q8,6 9,6l2,0l0,0l0,0l2,1l2,1l1,0l1,0l26,2q25,2 28,3q2,1 7,1l5,0l0,0l0,0l-2,1l-3,1l-4,0q-4,0 -21,2q-17,2 -41,2q-24,0 -29,-2q-4,-4 -7,-10q-3,-7 -3,-28l0,-21l0,0l0,0l1,-3l1,-2l0,2l0,1l1,-3q1,-3 1,-8z"/>
  <path id="svg_21" fill="#B1B0AD" fill-rule="evenodd" stroke="#B1B0AD" stroke-width="1px" d="m720,731l10,0l0,0l0,1l1,0l1,0l1,1l1,0l0,1l0,1l2,1q1,0 0,1q0,1 -2,2q-1,1 -1,1l0,0l-3,0q-2,0 -17,2l-15,2l-18,0q-19,0 -39,2l-20,1l-3,0q-4,0 -4,-1q0,-1 -14,-1l-15,-1l-1,1l-2,0l0,-1l0,0l1,0l0,0l3,-1l2,-1l-1,0l-1,0l-1,-1l-1,0l0,-1l0,-1l-5,0l-5,0l0,0l0,-1l68,-3q69,-3 78,-4z"/>
  <path id="svg_22" fill="#D01F1F" fill-rule="evenodd" stroke="#D01F1F" stroke-width="1px" d="m558,128l0,-1l1,1q1,1 1,4q0,4 -1,5l0,1l0,0q-1,1 -1,1q0,-1 -3,1q-3,2 -6,2q-3,2 -4,0l-1,-1l0,0l0,-1l-2,0l-1,0l0,0l0,-1l0,0l1,0l0,-1l0,0l1,0l1,0l2,-1q1,0 2,-1q0,-2 0,-2l1,0l1,1q1,1 4,-2q4,-3 4,-5z"/>
  <path id="svg_23" fill="#D8A243" fill-rule="evenodd" stroke="#D8A243" stroke-width="1px" d="m540,180l0,0l7,1q7,1 9,2l1,0l0,1q-1,0 -3,3q-2,3 -7,9q-6,6 -13,6q-7,0 -15,0l-8,-1l0,-1l0,-1l3,0l4,-1l6,-2q6,-2 8,-3q2,-1 3,-2q0,-1 1,-1q1,0 2,-1l1,0l0,-2l1,-2l0,-1l0,-1l0,-1l0,-1l0,-1z"/>
  <path id="svg_24" fill="#FD946E" fill-rule="evenodd" stroke="#FD946E" stroke-width="1px" d="m572,115l1,-1l0,0l1,0l3,8q3,8 4,9q1,1 1,1l0,0l1,0l0,0l0,1l1,0l0,0l0,1l0,0l0,0l0,0l0,1l0,0l0,1l-1,0q-1,0 -4,0l-3,0l-1,0q-1,0 -3,-4l-2,-3l-1,-1q-1,-1 -1,-5l0,-4l0,0l0,0l1,-1l0,-1l1,-1q1,0 2,-1z"/>
  <path id="svg_25" fill="#ACACAC" fill-rule="evenodd" stroke="#ACACAC" stroke-width="1px" d="m584,744l0,0l15,0q15,1 15,2q0,1 4,1l3,0l-2,1q-2,2 -1,2q2,0 0,1l-1,1l-1,0l-2,0l-2,1l-1,1l0,0l0,0l-7,0q-8,0 -40,1l-31,0l0,0l0,-1l1,0l1,0l2,-1l2,-1l1,0l1,0l-1,-1l-1,-1l18,-2q18,-2 21,-3l4,0l1,0q1,-1 1,-1z"/>
  <path id="svg_26" fill="#CACACA" fill-rule="evenodd" stroke="#CACACA" stroke-width="1px" d="m430,765l5,0l17,1q17,0 24,2q6,0 8,1l1,0l0,0q0,1 -3,1q-4,0 -41,3l-37,3l0,0q0,-1 2,-2q2,0 -3,-2l-5,0l-2,-1l-3,-1l1,0l2,0l1,-1l1,-1l0,0l0,0l14,-1q14,-1 18,-2z"/>
  <path id="svg_27" fill="#8F8F8D" fill-rule="evenodd" stroke="#8F8F8D" stroke-width="1px" d="m564,739l10,0l5,0l5,0l0,1l0,1l1,0l1,1l1,0l1,0l-2,1q-2,1 -2,1l0,0l-1,0q-1,0 -1,1l0,0l-4,0q-3,1 -21,3l-18,2l1,1l1,1l-1,0l-1,0l-2,1l-2,1l-1,0l-1,0l0,1l0,0l-3,0q-4,1 -8,1l-4,0l-1,0q-1,0 -41,4l-41,4l0,1l0,0l-5,0q-4,1 -18,2l-14,1l-27,0q-27,0 -57,1l-31,0l-1,0l-2,-1l-2,0q-2,0 -3,-1q-1,-1 -1,-2q1,-1 -1,-2l-2,-1l0,-1l0,-1l-1,0l-1,0l0,-2l-1,-1l0,0l0,-1l0,0l0,0l-1,0l0,0l0,-1l0,0l1,0l1,-1l143,-7q142,-7 152,-8z"/>
  <path id="svg_28" fill="#FD4C2F" fill-rule="evenodd" stroke="#FD4C2F" stroke-width="1px" d="m596,106l0,-1l4,5q4,5 4,12q2,7 0,10q0,3 -1,3l0,0l0,-1l-1,-2l0,0q0,0 -2,0l-1,0l0,0l-1,0l0,0l0,0l0,1l0,0l-1,0q0,1 -1,2q0,1 -2,2q-3,1 -8,2q-5,1 -8,-1l-2,-2l3,0q3,0 4,0l1,0l0,-1l0,0l0,-1l0,0l0,0l0,0l0,-1l0,0l-1,0l0,-1l0,0l-1,0l0,0q0,0 -1,-1q-1,-1 -4,-9l-3,-8l-1,0l0,0l-1,1q-1,1 -2,2l0,1l-1,0l0,0l0,1l-1,0l0,0l0,0l0,-1l0,-2l1,-2l1,-1l0,-1l0,-1l1,0l0,-1l0,0l1,0l0,0l0,0l0,-1l0,0l1,0l0,-1l8,0q8,-2 12,0q4,2 4,0q-1,-1 -1,-2z"/>
  <path id="svg_29" fill="#9B9B99" fill-rule="evenodd" stroke="#9B9B99" stroke-width="1px" d="m252,685l1,-5l3,38q2,37 6,37l5,0l0,0l0,1l0,0l1,0l0,0l0,0l0,1l0,0l1,1l0,2l1,0l1,0l0,1l0,1l2,1q2,1 1,2q0,1 1,2q1,1 3,1l2,0l2,1l1,0l0,0l0,1l-2,0l-2,0l-1,1l-1,1l-1,0l-1,0l-3,1l-2,1l-2,0l-2,0l-2,0q-1,0 -9,-6q-8,-5 -9,-7q-2,-2 -4,-7q-2,-5 -6,-21l-3,-16l0,0l1,0l0,1l0,1l1,1l1,1l0,-1l0,-1l1,0l0,1l0,0l1,0l0,-4q0,-3 2,-18l2,-14l0,-1l0,-1l1,1l1,1l0,-2l0,-1l1,1l0,2l1,0l1,0l0,3q1,3 1,7l0,4l1,1l1,1l0,-5q0,-5 2,-10z"/>
  <path id="svg_30" fill="#C6C6C6" fill-rule="evenodd" stroke="#C6C6C6" stroke-width="1px" d="m517,756l1,0l0,0l0,0l0,1l0,0l-1,0l0,1l-1,0l-1,0l3,1l4,1l4,0q3,0 6,1l4,1l4,0l3,0l1,1l0,0l0,0l0,1l-4,0l-4,0l-4,1q-5,1 -26,2l-21,2l-1,0q-2,-1 -8,-1q-7,-2 -24,-2l-17,-1l0,0l0,-1l41,-4q40,-4 41,-4z"/>
  <path id="svg_31" fill="#D1D0C9" fill-rule="evenodd" stroke="#D1D0C9" stroke-width="1px" d="m796,727l12,0l0,1q0,1 -2,2q-1,0 -15,4q-14,4 -36,5l-22,1l0,0q0,0 1,-1q2,-1 2,-2q1,-1 0,-1l-2,-1l0,-1l0,-1l-1,0l-1,-1l-1,0l-1,0l0,-1l0,0l0,0l0,-1l28,-1q27,-1 38,-2z"/>
  <text transform="rotate(-6.32687, 536.845, 337.946) matrix(2.79275, 0, 0, 6.35111, -558.262, -2119.04)" xml:space="preserve" text-anchor="middle" font-family="Comic Sans MS" font-size="24" id="svg_32" y="396.359484" x="391.623401" stroke-width="0" stroke="#000000" fill="#000000">coming soon !</text>
  <text transform="rotate(-4.9304, 536.753, 524.87) matrix(1.4655, 0, 0, 2.28441, -193.419, -685.975)" xml:space="preserve" text-anchor="middle" font-family="Trebuchet MS" font-size="24" id="svg_33" y="538.546196" x="497.241073" stroke-width="0" stroke="#000000" fill="#000000">info@damianomiri.it</text>
 </g>
</svg>